<svg xmlns="http://www.w3.org/2000/svg" viewBox="0 0 130 120" width="30" height="30" fill="none">
  <rect id="BG" x="-350" y="-1350" width="2180" height="1700" fill="#D8D8D8"/>
  <g id="Others">
    <rect width="130" height="120" fill="#DC4437"/>
    <polygon fill="#FCBE1F" points="31,14.5 36.9,27 50,29 40.5,38.8 42.7,52.5 31,46 19.3,52.5 21.5,38.8 12,29 25.1,27"/>
    <polygon fill="#FCBE1F" points="60.5,8 62.8,12.9 68,13.7 64.2,17.6 65.1,23 60.5,20.4 55.9,23 56.8,17.6 53,13.7 58.2,12.9"/>
    <polygon fill="#FCBE1F" points="64.5,25.8 66.8,30.8 72,31.6 68.2,35.4 69.1,40.8 64.5,38.3 59.9,40.8 60.8,35.4 57,31.6 62.2,30.8"/>
    <polygon fill="#FCBE1F" points="60.5,44 62.8,48.9 68,49.7 64.2,53.6 65.1,59 60.5,56.4 55.9,59 56.8,53.6 53,49.7 58.2,48.9"/>
  </g>
</svg>