<svg width="1024" height="1024" xmlns="http://www.w3.org/2000/svg" xmlns:xlink="http://www.w3.org/1999/xlink" version="1.1">
    <defs>
        <path d="m535.12,442.432l0,210.016a16,16 0 0 1 -16,16l-16.16,0a16,16 0 0 1 -16,-16l0,-212.24l-32.88,32.864a16,16 0 0 1 -11.312,4.688l-28.304,0a14.464,14.464 0 0 1 -10.24,-24.688l97.824,-97.808a11.136,11.136 0 0 1 15.744,0l97.808,97.808a14.464,14.464 0 0 1 -10.24,24.688l-28.288,0a16,16 0 0 1 -11.312,-4.688l-30.64,-30.64zm-23.12,357.568c159.056,0 288,-128.944 288,-288s-128.944,-288 -288,-288s-288,128.944 -288,288s128.944,288 288,288zm0,48c-185.568,0 -336,-150.432 -336,-336s150.432,-336 336,-336s336,150.432 336,336s-150.432,336 -336,336z" id="path_0"/>
    </defs>
    <g>
        <title>Layer 1</title>
        <g stroke="null" transform="translate(-10.0002 0) translate(217.504 -5.00009) translate(0 0) translate(0 0) translate(0 -176) translate(0 0) translate(0 176) translate(176 0) translate(0 0) translate(0 0) translate(-176 0) translate(0 0) translate(0 0) translate(0 0) translate(0 0) translate(-176 0) translate(0 0) translate(0 -2.50005) translate(-35.0007 47.5009) translate(-40.0008 -12.5002) translate(102.502 -152.503) translate(176 848) scale(0.88467 0.847467) translate(-176 -848)" style="vector-effect: non-scaling-stroke;" id="svg_1">
            <use style="vector-effect: non-scaling-stroke;" stroke="null" id="svg_2" fill=" #FA7F6F" xlink:href="#path_0"/>
            <mask style="vector-effect: non-scaling-stroke;" stroke="null" fill="white" id="bg-mask-0">
                <use style="vector-effect: non-scaling-stroke;" stroke="null" id="svg_3" xlink:href="#path_0"/>
            </mask>
            <g transform="translate(176 848) scale(0.88467 0.847467) translate(-176 -848) translate(198.944 1000.63) scale(0.88467 0.847467) translate(-198.944 -1000.63) translate(224.879 1180.73) scale(0.88467 0.847467) translate(-224.879 -1180.73) translate(254.196 1393.24) scale(0.88467 0.847467) translate(-254.196 -1393.24) translate(287.334 1644.01) scale(0.88467 0.847467) translate(-287.334 -1644.01) translate(324.792 1939.91) scale(0.88467 0.847467) translate(-324.792 -1939.91) translate(367.133 2289.06) scale(0.88467 0.847467) translate(-367.133 -2289.06) translate(414.994 2701.06) scale(0.88467 0.847467) translate(-414.994 -2701.06) translate(469.095 3187.22) scale(0.88467 0.847467) translate(-469.095 -3187.22) translate(530.248 3760.88) scale(0.88467 0.847467) translate(-530.248 -3760.88) translate(599.373 4437.78) scale(0.88467 0.847467) translate(-599.373 -4437.78) translate(677.51 5236.52) scale(0.88467 0.847467) translate(-677.51 -5236.52) translate(765.834 6179.03) scale(0.88467 0.847467) translate(-765.834 -6179.03) translate(865.671 7291.17) scale(0.88467 0.847467) translate(-865.671 -7291.17) translate(978.524 8603.48) scale(0.88467 0.847467) translate(-978.524 -8603.48) translate(1106.09 10152) scale(0.88467 0.847467) translate(-1106.09 -10152) translate(1250.28 11979.2) scale(0.88467 0.847467) translate(-1250.28 -11979.2) translate(1413.28 14135.3) scale(0.88467 0.847467) translate(-1413.28 -14135.3) translate(1597.52 16679.5) scale(0.88467 0.847467) translate(-1597.52 -16679.5) translate(1805.78 19681.5) scale(0.88467 0.847467) translate(-1805.78 -19681.5) translate(2041.19 23224) scale(0.88467 0.847467) translate(-2041.19 -23224) translate(2307.28 27404) scale(0.88467 0.847467) translate(-2307.28 -27404) translate(2608.07 32336.3) scale(0.88467 0.847467) translate(-2608.07 -32336.3) translate(2948.07 38156.4) scale(0.88467 0.847467) translate(-2948.07 -38156.4)" style="vector-effect: non-scaling-stroke;" stroke="null" id="svg_4" mask="url(#bg-mask-0)">
                <path style="vector-effect: non-scaling-stroke;" stroke="null" fill="#8BCAE0" opacity="0.27" id="分组 1"/>
            </g>
        </g>
        <text font-weight="bold" font-style="italic" font-family="'Grenze Gotisch'" transform="matrix(2.58576 0 0 3.73292 -618.853 -2645.07)" stroke="null" id="svg_5" text-anchor="middle" font-size="60" fill="#77c4bc" y="944.9658" x="453.46581">HSKhelper.top</text>
    </g>
</svg>