<?xml version="1.0" encoding="UTF-8"?>
<svg xmlns="http://www.w3.org/2000/svg" xmlns:xlink="http://www.w3.org/1999/xlink" width="48px" height="48px" viewBox="0 0 48 48" version="1.1">
<g id="surface1">
<path style=" stroke:none;fill-rule:nonzero;fill:rgb(11.372549%,63.137255%,94.901961%);fill-opacity:1;" d="M 42.855469 3 L 5.144531 3 C 2.304688 3 0 5.015625 0 7.5 L 0 40.5 C 0 42.984375 2.304688 45 5.144531 45 L 42.855469 45 C 45.695312 45 48 42.984375 48 40.5 L 48 7.5 C 48 5.015625 45.695312 3 42.855469 3 Z M 37.617188 17.886719 C 37.640625 18.148438 37.640625 18.421875 37.640625 18.683594 C 37.640625 26.8125 30.566406 36.179688 17.644531 36.179688 C 13.660156 36.179688 9.964844 35.164062 6.855469 33.421875 C 7.425781 33.476562 7.972656 33.496094 8.550781 33.496094 C 11.839844 33.496094 14.859375 32.523438 17.269531 30.871094 C 14.1875 30.816406 11.59375 29.042969 10.703125 26.605469 C 11.785156 26.746094 12.761719 26.746094 13.875 26.492188 C 10.660156 25.921875 8.25 23.445312 8.25 20.457031 L 8.25 20.382812 C 9.183594 20.839844 10.273438 21.121094 11.421875 21.160156 C 9.464844 20.019531 8.289062 18.097656 8.292969 16.039062 C 8.292969 14.898438 8.636719 13.847656 9.246094 12.9375 C 12.707031 16.667969 17.902344 19.105469 23.730469 19.367188 C 22.734375 15.195312 26.304688 11.8125 30.589844 11.8125 C 32.613281 11.8125 34.4375 12.554688 35.722656 13.753906 C 37.308594 13.492188 38.828125 12.976562 40.179688 12.273438 C 39.652344 13.695312 38.550781 14.898438 37.09375 15.65625 C 38.507812 15.523438 39.878906 15.179688 41.144531 14.699219 C 40.1875 15.929688 38.988281 17.015625 37.617188 17.886719 "/>
</g>
</svg>
