<?xml version="1.0" encoding="UTF-8"?>
<svg xmlns="http://www.w3.org/2000/svg" xmlns:xlink="http://www.w3.org/1999/xlink" width="48px" height="55px" viewBox="0 0 48 54" version="1.1">
<g id="surface1">
<path style=" stroke:none;fill-rule:nonzero;fill:rgb(11.372549%,63.137255%,94.901961%);fill-opacity:1;" d="M 42.855469 3.375 L 5.144531 3.375 C 2.304688 3.375 0 5.640625 0 8.4375 L 0 45.5625 C 0 48.359375 2.304688 50.625 5.144531 50.625 L 42.855469 50.625 C 45.695312 50.625 48 48.359375 48 45.5625 L 48 8.4375 C 48 5.640625 45.695312 3.375 42.855469 3.375 Z M 37.617188 20.125 C 37.640625 20.417969 37.640625 20.726562 37.640625 21.019531 C 37.640625 30.164062 30.566406 40.699219 17.644531 40.699219 C 13.660156 40.699219 9.964844 39.5625 6.855469 37.601562 C 7.425781 37.664062 7.972656 37.683594 8.550781 37.683594 C 11.839844 37.683594 14.859375 36.585938 17.269531 34.730469 C 14.1875 34.667969 11.59375 32.675781 10.703125 29.933594 C 11.785156 30.089844 12.761719 30.089844 13.875 29.804688 C 10.660156 29.164062 8.25 26.378906 8.25 23.011719 L 8.25 22.929688 C 9.183594 23.445312 10.273438 23.761719 11.421875 23.804688 C 9.464844 22.523438 8.289062 20.359375 8.292969 18.046875 C 8.292969 16.757812 8.636719 15.578125 9.246094 14.554688 C 12.707031 18.753906 17.902344 21.496094 23.730469 21.789062 C 22.734375 17.097656 26.304688 13.289062 30.589844 13.289062 C 32.613281 13.289062 34.4375 14.121094 35.722656 15.472656 C 37.308594 15.175781 38.828125 14.597656 40.179688 13.804688 C 39.652344 15.410156 38.550781 16.757812 37.09375 17.613281 C 38.507812 17.464844 39.878906 17.074219 41.144531 16.539062 C 40.1875 17.917969 38.988281 19.140625 37.617188 20.125 "/>
</g>
</svg>
