<?xml version="1.0" encoding="UTF-8"?>
<svg xmlns="http://www.w3.org/2000/svg" xmlns:xlink="http://www.w3.org/1999/xlink" width="48px" height="48px" viewBox="0 0 48 48" version="1.1">
<g id="surface1">
<path style=" stroke:none;fill-rule:nonzero;fill:rgb(0%,78.039216%,3.921569%);fill-opacity:1;" d="M 7.199219 0 L 40.800781 0 C 44.777344 0 48 3.222656 48 7.199219 L 48 40.800781 C 48 44.777344 44.777344 48 40.800781 48 L 7.199219 48 C 3.222656 48 0 44.777344 0 40.800781 L 0 7.199219 C 0 3.222656 3.222656 0 7.199219 0 Z M 7.199219 0 "/>
<path style=" stroke:none;fill-rule:nonzero;fill:rgb(100%,100%,100%);fill-opacity:1;" d="M 37.6875 34.59375 C 39.84375 33 41.25 30.65625 41.25 28.03125 C 41.25 23.25 36.5625 19.40625 30.84375 19.40625 C 25.125 19.40625 20.53125 23.25 20.53125 28.03125 C 20.53125 32.8125 25.125 36.65625 30.84375 36.65625 C 32.0625 36.65625 33.1875 36.46875 34.21875 36.1875 C 34.59375 36.09375 34.96875 36.1875 35.0625 36.28125 L 37.40625 37.59375 C 37.6875 37.78125 37.96875 37.59375 37.875 37.21875 L 37.3125 35.15625 C 37.3125 34.875 37.5 34.6875 37.6875 34.59375 M 27.375 26.625 C 26.804688 26.777344 26.199219 26.554688 25.863281 26.070312 C 25.523438 25.585938 25.523438 24.945312 25.863281 24.460938 C 26.199219 23.976562 26.804688 23.753906 27.375 23.90625 C 27.992188 24.070312 28.421875 24.628906 28.421875 25.265625 C 28.421875 25.902344 27.992188 26.460938 27.375 26.625 M 34.3125 26.625 C 33.742188 26.777344 33.136719 26.554688 32.800781 26.070312 C 32.460938 25.585938 32.460938 24.945312 32.800781 24.460938 C 33.136719 23.976562 33.742188 23.753906 34.3125 23.90625 C 34.929688 24.070312 35.359375 24.628906 35.359375 25.265625 C 35.359375 25.902344 34.929688 26.460938 34.3125 26.625 "/>
<path style=" stroke:none;fill-rule:nonzero;fill:rgb(100%,100%,100%);fill-opacity:1;" d="M 19.21875 9.84375 C 12.375 9.84375 6.84375 14.53125 6.84375 20.25 C 6.84375 23.34375 8.4375 26.15625 11.0625 28.03125 C 11.34375 28.21875 11.53125 28.5 11.4375 28.96875 L 10.78125 31.21875 C 10.6875 31.6875 11.0625 31.875 11.34375 31.78125 L 14.15625 30.1875 C 14.4375 30 14.8125 29.90625 15.1875 30 C 17.625 30.75 19.6875 30.5625 19.96875 30.5625 C 17.71875 22.6875 25.5 18.1875 31.5 18.5625 C 30.5625 13.6875 25.40625 9.84375 19.21875 9.84375 M 15.09375 18.5625 C 14.414062 18.726562 13.703125 18.453125 13.308594 17.878906 C 12.914062 17.300781 12.914062 16.542969 13.308594 15.964844 C 13.703125 15.390625 14.414062 15.117188 15.09375 15.28125 C 15.851562 15.464844 16.386719 16.140625 16.386719 16.921875 C 16.386719 17.703125 15.851562 18.378906 15.09375 18.5625 M 23.4375 18.5625 C 22.757812 18.726562 22.046875 18.453125 21.652344 17.878906 C 21.257812 17.300781 21.257812 16.542969 21.652344 15.964844 C 22.046875 15.390625 22.757812 15.117188 23.4375 15.28125 C 24.195312 15.464844 24.730469 16.140625 24.730469 16.921875 C 24.730469 17.703125 24.195312 18.378906 23.4375 18.5625 "/>
</g>
</svg>
